<mxfile host="app.diagrams.net" modified="2023-09-12T19:22:36.398Z" agent="Mozilla/5.0 (Windows NT 10.0; Win64; x64) AppleWebKit/537.36 (KHTML, like Gecko) Chrome/116.0.0.0 Safari/537.36" etag="AAnhS-ZVFvElFukJUF2r" version="21.7.4" type="google">
  <diagram name="Página-1" id="mUoNPzMKmUmFCuD-h3ee">
    <mxGraphModel grid="1" page="1" gridSize="10" guides="1" tooltips="1" connect="1" arrows="1" fold="1" pageScale="1" pageWidth="827" pageHeight="1169" math="0" shadow="0">
      <root>
        <mxCell id="0" />
        <mxCell id="1" parent="0" />
        <mxCell id="YElN332xQURlis5V6fxg-82" style="edgeStyle=orthogonalEdgeStyle;rounded=0;orthogonalLoop=1;jettySize=auto;html=1;entryX=-0.007;entryY=0.659;entryDx=0;entryDy=0;entryPerimeter=0;" edge="1" parent="1" source="YElN332xQURlis5V6fxg-1" target="YElN332xQURlis5V6fxg-34">
          <mxGeometry relative="1" as="geometry">
            <Array as="points">
              <mxPoint x="55" y="186" />
            </Array>
          </mxGeometry>
        </mxCell>
        <mxCell id="YElN332xQURlis5V6fxg-83" style="edgeStyle=orthogonalEdgeStyle;rounded=0;orthogonalLoop=1;jettySize=auto;html=1;entryX=0.5;entryY=1;entryDx=0;entryDy=0;" edge="1" parent="1" source="YElN332xQURlis5V6fxg-1" target="YElN332xQURlis5V6fxg-57">
          <mxGeometry relative="1" as="geometry">
            <Array as="points">
              <mxPoint x="55" y="340" />
              <mxPoint x="190" y="340" />
            </Array>
          </mxGeometry>
        </mxCell>
        <mxCell id="YElN332xQURlis5V6fxg-1" value="Leitor" style="shape=umlActor;verticalLabelPosition=bottom;verticalAlign=top;html=1;" vertex="1" parent="1">
          <mxGeometry x="40" y="230" width="30" height="60" as="geometry" />
        </mxCell>
        <mxCell id="YElN332xQURlis5V6fxg-68" style="edgeStyle=orthogonalEdgeStyle;rounded=0;orthogonalLoop=1;jettySize=auto;html=1;entryX=0.495;entryY=0.062;entryDx=0;entryDy=0;entryPerimeter=0;" edge="1" parent="1" source="YElN332xQURlis5V6fxg-8" target="YElN332xQURlis5V6fxg-60">
          <mxGeometry relative="1" as="geometry" />
        </mxCell>
        <mxCell id="YElN332xQURlis5V6fxg-89" style="edgeStyle=orthogonalEdgeStyle;rounded=0;orthogonalLoop=1;jettySize=auto;html=1;" edge="1" parent="1" source="YElN332xQURlis5V6fxg-8" target="YElN332xQURlis5V6fxg-29">
          <mxGeometry relative="1" as="geometry">
            <Array as="points">
              <mxPoint x="285" y="80" />
              <mxPoint x="285" y="110" />
            </Array>
          </mxGeometry>
        </mxCell>
        <mxCell id="YElN332xQURlis5V6fxg-8" value="Livros Disponíveis" style="ellipse;whiteSpace=wrap;html=1;align=center;" vertex="1" parent="1">
          <mxGeometry x="140" y="60" width="100" height="40" as="geometry" />
        </mxCell>
        <mxCell id="YElN332xQURlis5V6fxg-29" value="Biblioteca" style="shape=umlActor;verticalLabelPosition=bottom;verticalAlign=top;html=1;" vertex="1" parent="1">
          <mxGeometry x="330" y="100" width="30" height="60" as="geometry" />
        </mxCell>
        <mxCell id="YElN332xQURlis5V6fxg-91" style="edgeStyle=orthogonalEdgeStyle;rounded=0;orthogonalLoop=1;jettySize=auto;html=1;" edge="1" parent="1" source="YElN332xQURlis5V6fxg-34" target="YElN332xQURlis5V6fxg-29">
          <mxGeometry relative="1" as="geometry">
            <Array as="points">
              <mxPoint x="300" y="180" />
              <mxPoint x="300" y="160" />
            </Array>
          </mxGeometry>
        </mxCell>
        <mxCell id="YElN332xQURlis5V6fxg-34" value="Empréstimo" style="ellipse;whiteSpace=wrap;html=1;align=center;" vertex="1" parent="1">
          <mxGeometry x="140" y="160" width="100" height="40" as="geometry" />
        </mxCell>
        <mxCell id="YElN332xQURlis5V6fxg-92" style="edgeStyle=orthogonalEdgeStyle;rounded=0;orthogonalLoop=1;jettySize=auto;html=1;" edge="1" parent="1" source="YElN332xQURlis5V6fxg-35" target="YElN332xQURlis5V6fxg-29">
          <mxGeometry relative="1" as="geometry" />
        </mxCell>
        <mxCell id="YElN332xQURlis5V6fxg-35" value="Histórico" style="ellipse;whiteSpace=wrap;html=1;align=center;" vertex="1" parent="1">
          <mxGeometry x="140" y="210" width="100" height="40" as="geometry" />
        </mxCell>
        <mxCell id="YElN332xQURlis5V6fxg-94" style="edgeStyle=orthogonalEdgeStyle;rounded=0;orthogonalLoop=1;jettySize=auto;html=1;" edge="1" parent="1" source="YElN332xQURlis5V6fxg-57" target="YElN332xQURlis5V6fxg-29">
          <mxGeometry relative="1" as="geometry">
            <Array as="points">
              <mxPoint x="460" y="280" />
              <mxPoint x="460" y="130" />
            </Array>
          </mxGeometry>
        </mxCell>
        <mxCell id="YElN332xQURlis5V6fxg-57" value="Devolução" style="ellipse;whiteSpace=wrap;html=1;align=center;" vertex="1" parent="1">
          <mxGeometry x="140" y="260" width="100" height="40" as="geometry" />
        </mxCell>
        <mxCell id="YElN332xQURlis5V6fxg-58" value="Registar Leitor" style="ellipse;whiteSpace=wrap;html=1;align=center;" vertex="1" parent="1">
          <mxGeometry x="140" y="10" width="100" height="40" as="geometry" />
        </mxCell>
        <mxCell id="YElN332xQURlis5V6fxg-87" style="edgeStyle=orthogonalEdgeStyle;rounded=0;orthogonalLoop=1;jettySize=auto;html=1;entryX=0.5;entryY=0;entryDx=0;entryDy=0;entryPerimeter=0;" edge="1" parent="1" source="YElN332xQURlis5V6fxg-59" target="YElN332xQURlis5V6fxg-29">
          <mxGeometry relative="1" as="geometry">
            <Array as="points">
              <mxPoint x="410" y="-20" />
              <mxPoint x="410" y="100" />
            </Array>
          </mxGeometry>
        </mxCell>
        <mxCell id="YElN332xQURlis5V6fxg-59" value="Leitores Registrados" style="ellipse;whiteSpace=wrap;html=1;align=center;" vertex="1" parent="1">
          <mxGeometry x="140" y="-40" width="100" height="40" as="geometry" />
        </mxCell>
        <mxCell id="YElN332xQURlis5V6fxg-90" style="edgeStyle=orthogonalEdgeStyle;rounded=0;orthogonalLoop=1;jettySize=auto;html=1;entryX=0.178;entryY=0.844;entryDx=0;entryDy=0;entryPerimeter=0;" edge="1" parent="1" source="YElN332xQURlis5V6fxg-60" target="YElN332xQURlis5V6fxg-29">
          <mxGeometry relative="1" as="geometry">
            <Array as="points">
              <mxPoint x="335" y="130" />
            </Array>
          </mxGeometry>
        </mxCell>
        <mxCell id="YElN332xQURlis5V6fxg-60" value="Livros Emprestados" style="ellipse;whiteSpace=wrap;html=1;align=center;" vertex="1" parent="1">
          <mxGeometry x="140" y="110" width="100" height="40" as="geometry" />
        </mxCell>
        <mxCell id="YElN332xQURlis5V6fxg-72" value="" style="endArrow=none;html=1;rounded=0;entryX=0.5;entryY=1;entryDx=0;entryDy=0;exitX=0.489;exitY=0.048;exitDx=0;exitDy=0;exitPerimeter=0;" edge="1" parent="1" source="YElN332xQURlis5V6fxg-34">
          <mxGeometry width="50" height="50" relative="1" as="geometry">
            <mxPoint x="190.95" y="161.68000000000006" as="sourcePoint" />
            <mxPoint x="189.05" y="150" as="targetPoint" />
          </mxGeometry>
        </mxCell>
        <mxCell id="YElN332xQURlis5V6fxg-73" value="" style="endArrow=none;html=1;rounded=0;exitX=0.507;exitY=0.045;exitDx=0;exitDy=0;exitPerimeter=0;" edge="1" parent="1" source="YElN332xQURlis5V6fxg-35">
          <mxGeometry width="50" height="50" relative="1" as="geometry">
            <mxPoint x="240" y="220" as="sourcePoint" />
            <mxPoint x="190" y="200" as="targetPoint" />
          </mxGeometry>
        </mxCell>
        <mxCell id="YElN332xQURlis5V6fxg-74" value="" style="endArrow=none;html=1;rounded=0;entryX=0.5;entryY=1;entryDx=0;entryDy=0;exitX=0.5;exitY=0;exitDx=0;exitDy=0;" edge="1" parent="1" source="YElN332xQURlis5V6fxg-57" target="YElN332xQURlis5V6fxg-35">
          <mxGeometry width="50" height="50" relative="1" as="geometry">
            <mxPoint x="240" y="290" as="sourcePoint" />
            <mxPoint x="290" y="240" as="targetPoint" />
          </mxGeometry>
        </mxCell>
        <mxCell id="YElN332xQURlis5V6fxg-85" value="" style="endArrow=none;html=1;rounded=0;exitX=0.5;exitY=0;exitDx=0;exitDy=0;" edge="1" parent="1" source="YElN332xQURlis5V6fxg-8">
          <mxGeometry width="50" height="50" relative="1" as="geometry">
            <mxPoint x="140" y="100" as="sourcePoint" />
            <mxPoint x="190" y="50" as="targetPoint" />
          </mxGeometry>
        </mxCell>
        <mxCell id="YElN332xQURlis5V6fxg-86" value="" style="endArrow=none;html=1;rounded=0;entryX=0.5;entryY=1;entryDx=0;entryDy=0;exitX=0.5;exitY=0;exitDx=0;exitDy=0;" edge="1" parent="1" source="YElN332xQURlis5V6fxg-58" target="YElN332xQURlis5V6fxg-59">
          <mxGeometry width="50" height="50" relative="1" as="geometry">
            <mxPoint x="70" y="40" as="sourcePoint" />
            <mxPoint x="120" y="-10" as="targetPoint" />
          </mxGeometry>
        </mxCell>
      </root>
    </mxGraphModel>
  </diagram>
</mxfile>
